<?xml version="1.0" encoding="utf-8" standalone="no"?>
<!DOCTYPE svg PUBLIC "-//W3C//DTD SVG 1.1//EN"
  "http://www.w3.org/Graphics/SVG/1.1/DTD/svg11.dtd">
<svg xmlns:xlink="http://www.w3.org/1999/xlink" width="212.598425pt" height="170.07874pt" viewBox="0 0 212.598425 170.07874" xmlns="http://www.w3.org/2000/svg" version="1.1">
 <metadata>
  <rdf:RDF xmlns:dc="http://purl.org/dc/elements/1.1/" xmlns:cc="http://creativecommons.org/ns#" xmlns:rdf="http://www.w3.org/1999/02/22-rdf-syntax-ns#">
   <cc:Work>
    <dc:type rdf:resource="http://purl.org/dc/dcmitype/StillImage"/>
    <dc:date>2025-09-24T21:27:35.335717</dc:date>
    <dc:format>image/svg+xml</dc:format>
    <dc:creator>
     <cc:Agent>
      <dc:title>Matplotlib v3.10.0, https://matplotlib.org/</dc:title>
     </cc:Agent>
    </dc:creator>
   </cc:Work>
  </rdf:RDF>
 </metadata>
 <defs>
  <style type="text/css">*{stroke-linejoin: round; stroke-linecap: butt}</style>
 </defs>
 <g id="figure_1">
  <g id="patch_1">
   <path d="M 0 170.07874 
L 212.598425 170.07874 
L 212.598425 0 
L 0 0 
L 0 170.07874 
z
" style="fill: none"/>
  </g>
  <g id="axes_1">
   <g id="patch_2">
    <path d="M 36.141732 141.165354 
L 199.84252 141.165354 
L 199.84252 10.204724 
L 36.141732 10.204724 
L 36.141732 141.165354 
z
" style="fill: none"/>
   </g>
   <g id="matplotlib.axis_1">
    <g id="xtick_1">
     <g id="line2d_1">
      <defs>
       <path id="m7a462f7e2b" d="M 0 0 
L 0 3 
" style="stroke: #000000; stroke-width: 0.5"/>
      </defs>
      <g>
       <use xlink:href="#m7a462f7e2b" x="59.806136" y="141.165354" style="stroke: #000000; stroke-width: 0.5"/>
      </g>
     </g>
     <g id="text_1">
      <!-- $\mathdefault{10^{-6}}$ -->
      <g transform="translate(51.602411 151.402703) scale(0.07 -0.07)">
       <defs>
        <path id="ArevSans-Roman-f" d="M 794 531 
L 794 0 
L 3482 0 
L 3482 531 
L 2451 531 
L 2451 4672 
L 1818 4672 
L 704 4448 
L 704 3871 
L 1824 4095 
L 1824 531 
L 794 531 
z
" transform="scale(0.015625)"/>
        <path id="ArevSans-Roman-e" d="M 2035 4288 
C 2362 4288 2605 4128 2771 3807 
C 2931 3486 3014 3004 3014 2362 
C 3014 1720 2931 1239 2771 918 
C 2605 597 2362 436 2035 436 
C 1709 436 1466 597 1299 918 
C 1139 1239 1056 1720 1056 2362 
C 1056 3004 1139 3486 1299 3807 
C 1466 4128 1709 4288 2035 4288 
z
M 2035 4787 
C 1510 4787 1114 4582 838 4164 
C 557 3753 422 3151 422 2362 
C 422 1572 557 970 838 559 
C 1114 142 1510 -64 2035 -64 
C 2560 -64 2957 142 3232 559 
C 3507 970 3648 1572 3648 2362 
C 3648 3151 3507 3753 3232 4164 
C 2957 4582 2560 4787 2035 4787 
z
" transform="scale(0.015625)"/>
        <path id="MathDesign-CH-Bold-Symbol-10-0" d="M 14 1584 
L 4647 1584 
L 4647 2109 
L 14 2109 
L 14 1584 
z
" transform="scale(0.015625)"/>
        <path id="ArevSans-Roman-14" d="M 2112 2624 
C 2394 2624 2618 2527 2784 2327 
C 2950 2134 3034 1871 3034 1530 
C 3034 1188 2950 925 2784 732 
C 2618 533 2394 436 2112 436 
C 1830 436 1606 533 1440 732 
C 1274 925 1190 1188 1190 1530 
C 1190 1871 1274 2134 1440 2327 
C 1606 2527 1830 2624 2112 2624 
z
M 3366 4569 
C 3194 4633 3021 4678 2861 4710 
C 2701 4742 2541 4755 2381 4755 
C 1792 4755 1325 4538 973 4099 
C 621 3665 448 3079 448 2346 
C 448 1561 589 963 877 554 
C 1158 140 1574 -64 2112 -64 
C 2586 -64 2963 78 3245 374 
C 3526 663 3667 1048 3667 1530 
C 3667 2018 3533 2409 3264 2692 
C 2989 2981 2618 3123 2150 3123 
C 1926 3123 1722 3072 1536 2976 
C 1350 2880 1197 2739 1075 2560 
C 1107 3118 1229 3533 1453 3809 
C 1670 4086 1990 4224 2406 4224 
C 2566 4224 2726 4205 2886 4168 
C 3046 4131 3206 4075 3366 4000 
L 3366 4569 
z
" transform="scale(0.015625)"/>
       </defs>
       <use xlink:href="#ArevSans-Roman-f" transform="scale(0.996264)"/>
       <use xlink:href="#ArevSans-Roman-e" transform="translate(65.853072 0) scale(0.996264)"/>
       <use xlink:href="#MathDesign-CH-Bold-Symbol-10-0" transform="translate(131.407262 36.363606) scale(0.757155)"/>
       <use xlink:href="#ArevSans-Roman-14" transform="translate(192.888272 36.363606) scale(0.757155)"/>
      </g>
     </g>
    </g>
    <g id="xtick_2">
     <g id="line2d_2">
      <g>
       <use xlink:href="#m7a462f7e2b" x="96.184089" y="141.165354" style="stroke: #000000; stroke-width: 0.5"/>
      </g>
     </g>
     <g id="text_2">
      <!-- $\mathdefault{10^{-4}}$ -->
      <g transform="translate(87.980363 151.402703) scale(0.07 -0.07)">
       <defs>
        <path id="ArevSans-Roman-12" d="M 2419 4092 
L 2419 1613 
L 826 1613 
L 2419 4092 
z
M 2253 4640 
L 314 1696 
L 314 1088 
L 2419 1088 
L 2419 0 
L 3046 0 
L 3046 1088 
L 3712 1088 
L 3712 1613 
L 3046 1613 
L 3046 4640 
L 2253 4640 
z
" transform="scale(0.015625)"/>
       </defs>
       <use xlink:href="#ArevSans-Roman-f" transform="scale(0.996264)"/>
       <use xlink:href="#ArevSans-Roman-e" transform="translate(65.853072 0) scale(0.996264)"/>
       <use xlink:href="#MathDesign-CH-Bold-Symbol-10-0" transform="translate(131.407262 36.363606) scale(0.757155)"/>
       <use xlink:href="#ArevSans-Roman-12" transform="translate(192.888272 36.363606) scale(0.757155)"/>
      </g>
     </g>
    </g>
    <g id="xtick_3">
     <g id="line2d_3">
      <g>
       <use xlink:href="#m7a462f7e2b" x="132.562042" y="141.165354" style="stroke: #000000; stroke-width: 0.5"/>
      </g>
     </g>
     <g id="text_3">
      <!-- $\mathdefault{10^{-2}}$ -->
      <g transform="translate(124.358316 151.402703) scale(0.07 -0.07)">
       <defs>
        <path id="ArevSans-Roman-10" d="M 1229 531 
L 2406 1743 
C 2688 2031 2854 2210 2906 2268 
C 3098 2499 3226 2704 3296 2877 
C 3373 3050 3405 3230 3405 3422 
C 3405 3826 3264 4152 2976 4395 
C 2688 4633 2304 4755 1818 4755 
C 1638 4755 1434 4729 1210 4678 
C 992 4627 755 4550 499 4448 
L 499 3807 
C 749 3947 986 4051 1203 4121 
C 1427 4192 1632 4224 1830 4224 
C 2112 4224 2336 4147 2509 3993 
C 2688 3832 2771 3634 2771 3384 
C 2771 3230 2733 3076 2650 2916 
C 2573 2762 2432 2569 2227 2339 
C 2125 2217 1862 1948 1446 1532 
L 467 531 
L 467 0 
L 3430 0 
L 3430 531 
L 1229 531 
z
" transform="scale(0.015625)"/>
       </defs>
       <use xlink:href="#ArevSans-Roman-f" transform="scale(0.996264)"/>
       <use xlink:href="#ArevSans-Roman-e" transform="translate(65.853072 0) scale(0.996264)"/>
       <use xlink:href="#MathDesign-CH-Bold-Symbol-10-0" transform="translate(131.407262 36.363606) scale(0.757155)"/>
       <use xlink:href="#ArevSans-Roman-10" transform="translate(192.888272 36.363606) scale(0.757155)"/>
      </g>
     </g>
    </g>
    <g id="xtick_4">
     <g id="line2d_4">
      <g>
       <use xlink:href="#m7a462f7e2b" x="168.939994" y="141.165354" style="stroke: #000000; stroke-width: 0.5"/>
      </g>
     </g>
     <g id="text_4">
      <!-- $\mathdefault{10^{0}}$ -->
      <g transform="translate(162.758684 151.402703) scale(0.07 -0.07)">
       <use xlink:href="#ArevSans-Roman-f" transform="scale(0.996264)"/>
       <use xlink:href="#ArevSans-Roman-e" transform="translate(65.853072 0) scale(0.996264)"/>
       <use xlink:href="#ArevSans-Roman-e" transform="translate(131.407262 36.363606) scale(0.757155)"/>
      </g>
     </g>
    </g>
    <g id="text_5">
     <!-- $\tilde{k}_t$ -->
     <g transform="translate(114.922187 161.387743) scale(0.07 -0.07)">
      <defs>
       <path id="ArevSans-Roman-6a" d="M 1587 4293 
C 1664 4220 1734 4174 1805 4141 
C 1869 4108 1946 4096 2022 4096 
C 2214 4096 2362 4173 2464 4329 
C 2573 4486 2624 4706 2630 4992 
L 2240 4992 
C 2234 4814 2214 4689 2176 4611 
C 2138 4532 2080 4492 2003 4492 
C 1978 4492 1946 4505 1914 4525 
C 1875 4545 1837 4578 1792 4617 
L 1613 4795 
C 1536 4867 1466 4913 1395 4946 
C 1331 4979 1254 4992 1178 4992 
C 986 4992 838 4914 736 4758 
C 627 4602 576 4381 570 4096 
L 960 4096 
C 966 4273 986 4398 1024 4477 
C 1062 4556 1120 4595 1197 4595 
C 1222 4595 1254 4582 1286 4562 
C 1325 4543 1363 4510 1408 4470 
L 1587 4293 
z
" transform="scale(0.015625)"/>
       <path id="ArevSans-Oblique-3c" d="M 1171 4864 
L 224 0 
L 800 0 
L 1133 1709 
L 2624 0 
L 3322 0 
L 1715 1824 
L 3917 3501 
L 3168 3501 
L 1197 2029 
L 1747 4864 
L 1171 4864 
z
" transform="scale(0.015625)"/>
       <path id="ArevSans-Oblique-45" d="M 2707 3520 
L 1555 3520 
L 1747 4480 
L 1171 4480 
L 979 3520 
L 499 3520 
L 410 3072 
L 896 3072 
L 525 1159 
C 512 1089 506 1030 499 972 
C 493 915 486 856 486 811 
C 486 541 570 335 736 199 
C 909 64 1158 0 1504 0 
L 2054 0 
L 2150 480 
L 1568 480 
C 1389 480 1261 512 1184 571 
C 1101 635 1062 732 1062 867 
C 1062 893 1069 931 1069 977 
C 1075 1028 1088 1087 1101 1157 
L 1472 3072 
L 2618 3072 
L 2707 3520 
z
" transform="scale(0.015625)"/>
      </defs>
      <use xlink:href="#ArevSans-Roman-6a" transform="translate(14.046827 21.220457) scale(0.996264)"/>
      <use xlink:href="#ArevSans-Oblique-3c" transform="scale(0.996264)"/>
      <use xlink:href="#ArevSans-Oblique-45" transform="translate(59.874424 -15.043577) scale(0.757155)"/>
     </g>
    </g>
   </g>
   <g id="matplotlib.axis_2">
    <g id="ytick_1">
     <g id="line2d_5">
      <defs>
       <path id="mfe6271b34e" d="M 0 0 
L -3 0 
" style="stroke: #000000; stroke-width: 0.5"/>
      </defs>
      <g>
       <use xlink:href="#mfe6271b34e" x="36.141732" y="122.233831" style="stroke: #000000; stroke-width: 0.5"/>
      </g>
     </g>
     <g id="text_6">
      <!-- $\mathdefault{10^{-6}}$ -->
      <g transform="translate(14.734281 124.852505) scale(0.07 -0.07)">
       <use xlink:href="#ArevSans-Roman-f" transform="scale(0.996264)"/>
       <use xlink:href="#ArevSans-Roman-e" transform="translate(65.853072 0) scale(0.996264)"/>
       <use xlink:href="#MathDesign-CH-Bold-Symbol-10-0" transform="translate(131.407262 36.363606) scale(0.757155)"/>
       <use xlink:href="#ArevSans-Roman-14" transform="translate(192.888272 36.363606) scale(0.757155)"/>
      </g>
     </g>
    </g>
    <g id="ytick_2">
     <g id="line2d_6">
      <g>
       <use xlink:href="#mfe6271b34e" x="36.141732" y="93.131469" style="stroke: #000000; stroke-width: 0.5"/>
      </g>
     </g>
     <g id="text_7">
      <!-- $\mathdefault{10^{-4}}$ -->
      <g transform="translate(14.734281 95.750143) scale(0.07 -0.07)">
       <use xlink:href="#ArevSans-Roman-f" transform="scale(0.996264)"/>
       <use xlink:href="#ArevSans-Roman-e" transform="translate(65.853072 0) scale(0.996264)"/>
       <use xlink:href="#MathDesign-CH-Bold-Symbol-10-0" transform="translate(131.407262 36.363606) scale(0.757155)"/>
       <use xlink:href="#ArevSans-Roman-12" transform="translate(192.888272 36.363606) scale(0.757155)"/>
      </g>
     </g>
    </g>
    <g id="ytick_3">
     <g id="line2d_7">
      <g>
       <use xlink:href="#mfe6271b34e" x="36.141732" y="64.029107" style="stroke: #000000; stroke-width: 0.5"/>
      </g>
     </g>
     <g id="text_8">
      <!-- $\mathdefault{10^{-2}}$ -->
      <g transform="translate(14.734281 66.647781) scale(0.07 -0.07)">
       <use xlink:href="#ArevSans-Roman-f" transform="scale(0.996264)"/>
       <use xlink:href="#ArevSans-Roman-e" transform="translate(65.853072 0) scale(0.996264)"/>
       <use xlink:href="#MathDesign-CH-Bold-Symbol-10-0" transform="translate(131.407262 36.363606) scale(0.757155)"/>
       <use xlink:href="#ArevSans-Roman-10" transform="translate(192.888272 36.363606) scale(0.757155)"/>
      </g>
     </g>
    </g>
    <g id="ytick_4">
     <g id="line2d_8">
      <g>
       <use xlink:href="#mfe6271b34e" x="36.141732" y="34.926745" style="stroke: #000000; stroke-width: 0.5"/>
      </g>
     </g>
     <g id="text_9">
      <!-- $\mathdefault{10^{0}}$ -->
      <g transform="translate(18.779111 37.545419) scale(0.07 -0.07)">
       <use xlink:href="#ArevSans-Roman-f" transform="scale(0.996264)"/>
       <use xlink:href="#ArevSans-Roman-e" transform="translate(65.853072 0) scale(0.996264)"/>
       <use xlink:href="#ArevSans-Roman-e" transform="translate(131.407262 36.363606) scale(0.757155)"/>
      </g>
     </g>
    </g>
    <g id="text_10">
     <!-- $\tilde{k}_b$ -->
     <g transform="translate(11.412745 79.357722) rotate(-90) scale(0.07 -0.07)">
      <defs>
       <path id="ArevSans-Oblique-33" d="M 3168 2136 
C 3168 1930 3130 1712 3059 1481 
C 2989 1257 2893 1057 2771 885 
C 2656 718 2522 596 2368 512 
C 2214 429 2042 384 1862 384 
C 1626 384 1434 468 1299 629 
C 1165 795 1094 1019 1094 1308 
C 1094 1539 1126 1763 1197 1995 
C 1267 2219 1363 2425 1485 2597 
C 1600 2757 1734 2886 1888 2976 
C 2042 3059 2208 3104 2387 3104 
C 2630 3104 2822 3021 2963 2847 
C 3098 2674 3168 2437 3168 2136 
z
M 1382 2970 
L 1754 4864 
L 1178 4864 
L 230 -6 
L 806 -6 
L 909 525 
C 1011 320 1152 167 1318 58 
C 1485 -44 1677 -96 1907 -96 
C 2118 -96 2323 -51 2522 32 
C 2720 122 2893 251 3040 411 
C 3270 654 3443 937 3571 1257 
C 3693 1571 3757 1898 3757 2238 
C 3757 2654 3648 2981 3437 3218 
C 3226 3462 2944 3584 2586 3584 
C 2349 3584 2125 3533 1914 3418 
C 1702 3309 1523 3162 1382 2970 
z
" transform="scale(0.015625)"/>
      </defs>
      <use xlink:href="#ArevSans-Roman-6a" transform="translate(14.046827 21.220457) scale(0.996264)"/>
      <use xlink:href="#ArevSans-Oblique-3c" transform="scale(0.996264)"/>
      <use xlink:href="#ArevSans-Oblique-33" transform="translate(59.874424 -15.043577) scale(0.757155)"/>
     </g>
    </g>
   </g>
   <g id="line2d_9">
    <path d="M 72.519685 112.062992 
L 72.519685 97.511811 
L 72.519685 82.96063 
L 72.519685 68.409449 
L 72.519685 53.858268 
L 72.519685 39.307087 
" clip-path="url(#p2181639a67)" style="fill: none"/>
    <defs>
     <path id="md5b895eb42" d="M 0 1.5 
C 0.397805 1.5 0.77937 1.341951 1.06066 1.06066 
C 1.341951 0.77937 1.5 0.397805 1.5 0 
C 1.5 -0.397805 1.341951 -0.77937 1.06066 -1.06066 
C 0.77937 -1.341951 0.397805 -1.5 0 -1.5 
C -0.397805 -1.5 -0.77937 -1.341951 -1.06066 -1.06066 
C -1.341951 -0.77937 -1.5 -0.397805 -1.5 0 
C -1.5 0.397805 -1.341951 0.77937 -1.06066 1.06066 
C -0.77937 1.341951 -0.397805 1.5 0 1.5 
z
" style="stroke: #fcbda4; stroke-opacity: 0.255"/>
    </defs>
    <g clip-path="url(#p2181639a67)">
     <use xlink:href="#md5b895eb42" x="72.519685" y="112.062992" style="fill: #ffffff; fill-opacity: 0.255; stroke: #fcbda4; stroke-opacity: 0.255"/>
     <use xlink:href="#md5b895eb42" x="72.519685" y="97.511811" style="fill: #ffffff; fill-opacity: 0.255; stroke: #fcbda4; stroke-opacity: 0.255"/>
     <use xlink:href="#md5b895eb42" x="72.519685" y="82.96063" style="fill: #ffffff; fill-opacity: 0.255; stroke: #fcbda4; stroke-opacity: 0.255"/>
     <use xlink:href="#md5b895eb42" x="72.519685" y="68.409449" style="fill: #ffffff; fill-opacity: 0.255; stroke: #fcbda4; stroke-opacity: 0.255"/>
     <use xlink:href="#md5b895eb42" x="72.519685" y="53.858268" style="fill: #ffffff; fill-opacity: 0.255; stroke: #fcbda4; stroke-opacity: 0.255"/>
     <use xlink:href="#md5b895eb42" x="72.519685" y="39.307087" style="fill: #ffffff; fill-opacity: 0.255; stroke: #fcbda4; stroke-opacity: 0.255"/>
    </g>
   </g>
   <g id="line2d_10">
    <path d="M 90.708661 112.062992 
L 90.708661 97.511811 
L 90.708661 82.96063 
L 90.708661 68.409449 
L 90.708661 53.858268 
L 90.708661 39.307087 
" clip-path="url(#p2181639a67)" style="fill: none"/>
    <defs>
     <path id="m35c8cc793a" d="M -1.5 1.5 
L 1.5 1.5 
L 1.5 -1.5 
L -1.5 -1.5 
z
" style="stroke: #fc8f6f; stroke-opacity: 0.255; stroke-linejoin: miter"/>
    </defs>
    <g clip-path="url(#p2181639a67)">
     <use xlink:href="#m35c8cc793a" x="90.708661" y="112.062992" style="fill: #ffffff; fill-opacity: 0.255; stroke: #fc8f6f; stroke-opacity: 0.255; stroke-linejoin: miter"/>
     <use xlink:href="#m35c8cc793a" x="90.708661" y="97.511811" style="fill: #ffffff; fill-opacity: 0.255; stroke: #fc8f6f; stroke-opacity: 0.255; stroke-linejoin: miter"/>
     <use xlink:href="#m35c8cc793a" x="90.708661" y="82.96063" style="fill: #ffffff; fill-opacity: 0.255; stroke: #fc8f6f; stroke-opacity: 0.255; stroke-linejoin: miter"/>
     <use xlink:href="#m35c8cc793a" x="90.708661" y="68.409449" style="fill: #ffffff; fill-opacity: 0.255; stroke: #fc8f6f; stroke-opacity: 0.255; stroke-linejoin: miter"/>
     <use xlink:href="#m35c8cc793a" x="90.708661" y="53.858268" style="fill: #ffffff; fill-opacity: 0.255; stroke: #fc8f6f; stroke-opacity: 0.255; stroke-linejoin: miter"/>
     <use xlink:href="#m35c8cc793a" x="90.708661" y="39.307087" style="fill: #ffffff; fill-opacity: 0.255; stroke: #fc8f6f; stroke-opacity: 0.255; stroke-linejoin: miter"/>
    </g>
   </g>
   <g id="line2d_11">
    <path d="M 108.897638 112.062992 
L 108.897638 97.511811 
L 108.897638 82.96063 
L 108.897638 68.409449 
L 108.897638 53.858268 
L 108.897638 39.307087 
" clip-path="url(#p2181639a67)" style="fill: none"/>
    <defs>
     <path id="m5f782b36d2" d="M 0 -1.5 
L -1.5 1.5 
L 1.5 1.5 
z
" style="stroke: #f85f43; stroke-opacity: 0.255; stroke-linejoin: miter"/>
    </defs>
    <g clip-path="url(#p2181639a67)">
     <use xlink:href="#m5f782b36d2" x="108.897638" y="112.062992" style="fill: #ffffff; fill-opacity: 0.255; stroke: #f85f43; stroke-opacity: 0.255; stroke-linejoin: miter"/>
     <use xlink:href="#m5f782b36d2" x="108.897638" y="97.511811" style="fill: #ffffff; fill-opacity: 0.255; stroke: #f85f43; stroke-opacity: 0.255; stroke-linejoin: miter"/>
     <use xlink:href="#m5f782b36d2" x="108.897638" y="82.96063" style="fill: #ffffff; fill-opacity: 0.255; stroke: #f85f43; stroke-opacity: 0.255; stroke-linejoin: miter"/>
     <use xlink:href="#m5f782b36d2" x="108.897638" y="68.409449" style="fill: #ffffff; fill-opacity: 0.255; stroke: #f85f43; stroke-opacity: 0.255; stroke-linejoin: miter"/>
     <use xlink:href="#m5f782b36d2" x="108.897638" y="53.858268" style="fill: #ffffff; fill-opacity: 0.255; stroke: #f85f43; stroke-opacity: 0.255; stroke-linejoin: miter"/>
     <use xlink:href="#m5f782b36d2" x="108.897638" y="39.307087" style="fill: #ffffff; fill-opacity: 0.255; stroke: #f85f43; stroke-opacity: 0.255; stroke-linejoin: miter"/>
    </g>
   </g>
   <g id="line2d_12">
    <path d="M 127.086614 112.062992 
L 127.086614 97.511811 
L 127.086614 82.96063 
L 127.086614 68.409449 
L 127.086614 53.858268 
L 127.086614 39.307087 
" clip-path="url(#p2181639a67)" style="fill: none"/>
    <defs>
     <path id="mbe7200a809" d="M -0 2.12132 
L 2.12132 0 
L 0 -2.12132 
L -2.12132 -0 
z
" style="stroke: #e22e27; stroke-opacity: 0.255; stroke-linejoin: miter"/>
    </defs>
    <g clip-path="url(#p2181639a67)">
     <use xlink:href="#mbe7200a809" x="127.086614" y="112.062992" style="fill: #ffffff; fill-opacity: 0.255; stroke: #e22e27; stroke-opacity: 0.255; stroke-linejoin: miter"/>
     <use xlink:href="#mbe7200a809" x="127.086614" y="97.511811" style="fill: #ffffff; fill-opacity: 0.255; stroke: #e22e27; stroke-opacity: 0.255; stroke-linejoin: miter"/>
     <use xlink:href="#mbe7200a809" x="127.086614" y="82.96063" style="fill: #ffffff; fill-opacity: 0.255; stroke: #e22e27; stroke-opacity: 0.255; stroke-linejoin: miter"/>
     <use xlink:href="#mbe7200a809" x="127.086614" y="68.409449" style="fill: #ffffff; fill-opacity: 0.255; stroke: #e22e27; stroke-opacity: 0.255; stroke-linejoin: miter"/>
     <use xlink:href="#mbe7200a809" x="127.086614" y="53.858268" style="fill: #ffffff; fill-opacity: 0.255; stroke: #e22e27; stroke-opacity: 0.255; stroke-linejoin: miter"/>
     <use xlink:href="#mbe7200a809" x="127.086614" y="39.307087" style="fill: #ffffff; fill-opacity: 0.255; stroke: #e22e27; stroke-opacity: 0.255; stroke-linejoin: miter"/>
    </g>
   </g>
   <g id="line2d_13">
    <path d="M 145.275591 112.062992 
L 145.275591 97.511811 
L 145.275591 82.96063 
L 145.275591 68.409449 
L 145.275591 53.858268 
L 145.275591 39.307087 
" clip-path="url(#p2181639a67)" style="fill: none"/>
    <defs>
     <path id="m7546383ac4" d="M -0 1.5 
L 1.5 -1.5 
L -1.5 -1.5 
z
" style="stroke: #b71319; stroke-opacity: 0.255; stroke-linejoin: miter"/>
    </defs>
    <g clip-path="url(#p2181639a67)">
     <use xlink:href="#m7546383ac4" x="145.275591" y="112.062992" style="fill: #ffffff; fill-opacity: 0.255; stroke: #b71319; stroke-opacity: 0.255; stroke-linejoin: miter"/>
     <use xlink:href="#m7546383ac4" x="145.275591" y="97.511811" style="fill: #ffffff; fill-opacity: 0.255; stroke: #b71319; stroke-opacity: 0.255; stroke-linejoin: miter"/>
     <use xlink:href="#m7546383ac4" x="145.275591" y="82.96063" style="fill: #ffffff; fill-opacity: 0.255; stroke: #b71319; stroke-opacity: 0.255; stroke-linejoin: miter"/>
     <use xlink:href="#m7546383ac4" x="145.275591" y="68.409449" style="fill: #ffffff; fill-opacity: 0.255; stroke: #b71319; stroke-opacity: 0.255; stroke-linejoin: miter"/>
     <use xlink:href="#m7546383ac4" x="145.275591" y="53.858268" style="fill: #ffffff; fill-opacity: 0.255; stroke: #b71319; stroke-opacity: 0.255; stroke-linejoin: miter"/>
     <use xlink:href="#m7546383ac4" x="145.275591" y="39.307087" style="fill: #ffffff; fill-opacity: 0.255; stroke: #b71319; stroke-opacity: 0.255; stroke-linejoin: miter"/>
    </g>
   </g>
   <g id="line2d_14">
    <path d="M 163.464567 112.062992 
L 163.464567 97.511811 
L 163.464567 82.96063 
L 163.464567 68.409449 
L 163.464567 53.858268 
L 163.464567 39.307087 
" clip-path="url(#p2181639a67)" style="fill: none"/>
    <defs>
     <path id="m17b1dd3bd8" d="M 0 -1.5 
L -1.426585 -0.463525 
L -0.881678 1.213525 
L 0.881678 1.213525 
L 1.426585 -0.463525 
z
" style="stroke: #7c0510; stroke-opacity: 0.255; stroke-linejoin: miter"/>
    </defs>
    <g clip-path="url(#p2181639a67)">
     <use xlink:href="#m17b1dd3bd8" x="163.464567" y="112.062992" style="fill: #ffffff; fill-opacity: 0.255; stroke: #7c0510; stroke-opacity: 0.255; stroke-linejoin: miter"/>
     <use xlink:href="#m17b1dd3bd8" x="163.464567" y="97.511811" style="fill: #ffffff; fill-opacity: 0.255; stroke: #7c0510; stroke-opacity: 0.255; stroke-linejoin: miter"/>
     <use xlink:href="#m17b1dd3bd8" x="163.464567" y="82.96063" style="fill: #ffffff; fill-opacity: 0.255; stroke: #7c0510; stroke-opacity: 0.255; stroke-linejoin: miter"/>
     <use xlink:href="#m17b1dd3bd8" x="163.464567" y="68.409449" style="fill: #ffffff; fill-opacity: 0.255; stroke: #7c0510; stroke-opacity: 0.255; stroke-linejoin: miter"/>
     <use xlink:href="#m17b1dd3bd8" x="163.464567" y="53.858268" style="fill: #ffffff; fill-opacity: 0.255; stroke: #7c0510; stroke-opacity: 0.255; stroke-linejoin: miter"/>
     <use xlink:href="#m17b1dd3bd8" x="163.464567" y="39.307087" style="fill: #ffffff; fill-opacity: 0.255; stroke: #7c0510; stroke-opacity: 0.255; stroke-linejoin: miter"/>
    </g>
   </g>
   <g id="line2d_15">
    <path d="M 72.519685 112.062992 
L 72.519685 39.307087 
" clip-path="url(#p2181639a67)" style="fill: none"/>
    <defs>
     <path id="ma6fef8597e" d="M 0 1.5 
C 0.397805 1.5 0.77937 1.341951 1.06066 1.06066 
C 1.341951 0.77937 1.5 0.397805 1.5 0 
C 1.5 -0.397805 1.341951 -0.77937 1.06066 -1.06066 
C 0.77937 -1.341951 0.397805 -1.5 0 -1.5 
C -0.397805 -1.5 -0.77937 -1.341951 -1.06066 -1.06066 
C -1.341951 -0.77937 -1.5 -0.397805 -1.5 0 
C -1.5 0.397805 -1.341951 0.77937 -1.06066 1.06066 
C -0.77937 1.341951 -0.397805 1.5 0 1.5 
z
" style="stroke: #fcbda4"/>
    </defs>
    <g clip-path="url(#p2181639a67)">
     <use xlink:href="#ma6fef8597e" x="72.519685" y="112.062992" style="fill: #fcbda4; stroke: #fcbda4"/>
     <use xlink:href="#ma6fef8597e" x="72.519685" y="39.307087" style="fill: #fcbda4; stroke: #fcbda4"/>
    </g>
   </g>
   <g id="line2d_16">
    <path d="M 163.464567 112.062992 
L 163.464567 39.307087 
" clip-path="url(#p2181639a67)" style="fill: none"/>
    <defs>
     <path id="m74b219bfe8" d="M 0 -1.5 
L -1.426585 -0.463525 
L -0.881678 1.213525 
L 0.881678 1.213525 
L 1.426585 -0.463525 
z
" style="stroke: #7c0510; stroke-linejoin: miter"/>
    </defs>
    <g clip-path="url(#p2181639a67)">
     <use xlink:href="#m74b219bfe8" x="163.464567" y="112.062992" style="fill: #7c0510; stroke: #7c0510; stroke-linejoin: miter"/>
     <use xlink:href="#m74b219bfe8" x="163.464567" y="39.307087" style="fill: #7c0510; stroke: #7c0510; stroke-linejoin: miter"/>
    </g>
   </g>
   <g id="patch_3">
    <path d="M 36.141732 141.165354 
L 36.141732 10.204724 
" style="fill: none; stroke: #000000; stroke-width: 0.5; stroke-linejoin: miter; stroke-linecap: square"/>
   </g>
   <g id="patch_4">
    <path d="M 36.141732 141.165354 
L 199.84252 141.165354 
" style="fill: none; stroke: #000000; stroke-width: 0.5; stroke-linejoin: miter; stroke-linecap: square"/>
   </g>
  </g>
 </g>
 <defs>
  <clipPath id="p2181639a67">
   <rect x="36.141732" y="10.204724" width="163.700787" height="130.96063"/>
  </clipPath>
 </defs>
</svg>
